<mxfile host="app.diagrams.net" agent="Mozilla/5.0 (X11; Linux x86_64) AppleWebKit/537.36 (KHTML, like Gecko) Chrome/132.0.0.0 Safari/537.36" version="26.0.10">
  <diagram name="Page-1" id="dKGNPrQp20S2oc_OehTf">
    <mxGraphModel dx="1434" dy="688" grid="1" gridSize="10" guides="1" tooltips="1" connect="1" arrows="1" fold="1" page="1" pageScale="1" pageWidth="850" pageHeight="1100" math="0" shadow="0">
      <root>
        <mxCell id="0" />
        <mxCell id="1" parent="0" />
        <mxCell id="X8hCXNgWhETL42D7RwJg-6" value="" style="verticalLabelPosition=bottom;aspect=fixed;html=1;verticalAlign=top;fillColor=strokeColor;align=center;outlineConnect=0;shape=mxgraph.fluid_power.x11800;points=[[0,0,0],[0.5,0,0],[1,0,0],[1,0.5,0],[1,1,0],[0.5,1,0],[0,1,0],[0,0.5,0]]" vertex="1" parent="1">
          <mxGeometry x="280" y="640" width="46.12" height="27.74" as="geometry" />
        </mxCell>
        <mxCell id="X8hCXNgWhETL42D7RwJg-10" value="" style="verticalLabelPosition=bottom;aspect=fixed;html=1;verticalAlign=top;fillColor=strokeColor;align=center;outlineConnect=0;shape=mxgraph.fluid_power.x11450;points=[[0.04,1,0],[0.707,1,0]]" vertex="1" parent="1">
          <mxGeometry x="200" y="522" width="111.42" height="56.04" as="geometry" />
        </mxCell>
        <mxCell id="X8hCXNgWhETL42D7RwJg-12" style="edgeStyle=orthogonalEdgeStyle;rounded=0;orthogonalLoop=1;jettySize=auto;html=1;" edge="1" parent="1" source="X8hCXNgWhETL42D7RwJg-11" target="X8hCXNgWhETL42D7RwJg-10">
          <mxGeometry relative="1" as="geometry">
            <Array as="points">
              <mxPoint x="110" y="540" />
            </Array>
          </mxGeometry>
        </mxCell>
        <mxCell id="X8hCXNgWhETL42D7RwJg-11" value="Reservoir" style="whiteSpace=wrap;html=1;aspect=fixed;" vertex="1" parent="1">
          <mxGeometry x="70" y="630" width="80" height="80" as="geometry" />
        </mxCell>
      </root>
    </mxGraphModel>
  </diagram>
</mxfile>
